<svg height="617" viewBox="0 0 2309 617" width="2309" xmlns="http://www.w3.org/2000/svg"><path d="m456.3 38.1c15.2 8.5 31.6 19.4 43.9 29.1 13.3 10.6 38.3 35.6 48.3 48.3 38 48.2 61.1 105.7 66.5 165.9 1.6 17.8.6 54.3-2 71.1-7.6 50.2-25.1 94.1-53.4 133.9-29.7 41.9-70.9 77-115.9 98.9-33.8 16.4-64.2 25.2-102.3 29.7-9.3 1.1-48.7 2.2-54 1.4-1.6-.2-7.9-.9-14-1.5-65.7-6.5-131.6-37.7-180.4-85.3-50.4-49.3-79.6-106.6-90.7-178.1-2.2-13.8-3-57.7-1.4-73.1 9-88.6 53.4-166.2 125.5-219.4 94.8-69.9 227.1-78.3 329.9-20.9zm147.6 274.9h-59.6l-1.2 14.8c-7 84.1-59.2 159-135.9 194.8-24.7 11.6-53.9 19.4-78.2 21-4.7.3-10.1.7-11.8 1l-3.3.5v59.4l8.3-.3c4.5-.2 13.6-1 20.2-1.8 64.4-7.9 123.2-35.6 169-79.6 47.5-45.5 78-102.8 88.4-165.8 2.2-13.4 4.1-31.5 4.1-39.2zm-532 0h-60v6.4c0 8.8 1.7 24.8 4.1 39.1 15.7 93.9 77.6 175.6 164.2 217 27.2 13 56.6 21.9 85.2 25.9 14.9 2.1 16.6 2.3 27.3 2.4l9.2.2v-58.7l-3.1-.7c-1.7-.3-5.3-.6-8-.6-13.4 0-42.7-6.1-62.4-13-11.5-4-32.4-14.1-44.3-21.3-53.3-32.5-93.1-88-106.6-148.7-3-13.8-5.6-32.7-5.6-41.6zm142.3-208c-25.1 11.8-45.6 26.2-64.8 45.4-44.5 44.6-67.3 102.9-65.2 166.1 1.1 33.2 8.4 62 23 91.5 29.4 59.2 83.9 102.7 148.2 118 28.2 6.7 50.1 7.9 80.4 4.4 46.9-5.5 91.7-27 126.9-60.8 27.1-26.2 45.7-56 58.3-93.5 7.4-22.4 10.1-39.3 10.303706-65.6.096294-26.3-1.803706-41.1-8.603706-64.5-16.7-58.1-59-109.2-113.4-137-60.9-31.2-133.7-32.7-195.1-4zm98.7 38c1.772727 1.772727 1.993572 3.254477 1.999857 12.946801l.000143 11.853199 7.8.7c25.2 2.2 55.4 13.5 76.7 28.6 11.4 8.1 27.5 24 35.3 34.7l6 8.3.7-5.8c1.3-12.9 4.1-16.9 10.3-14.7 5 1.8 5.2 3.8 2.3 28.9-2.4 21.1-2.8 23-4.6 23.3-1.1.1-11.2-3.5-22.4-8.1-22.5-9.1-25.4-11.2-23.5-16.4.5-1.5 2.1-3.4 3.6-4.2 2.5-1.4 3.2-1.3 11.9 2.2 5.1 2 9.4 3.5 9.6 3.3.2-.1-1.9-3.4-4.6-7.2-19.8-28.3-55-50.6-89.3-56.8-4.5-.8-10.9-1.8-14-2.2l-5.8-.6v166.1l22 .3c19.1.3 22.2.5 23.6 2 2.3 2.2 2.2 7.3-.1 9.8-1.632 1.824-2.89536 1.98912-21.307853 1.999411l-24.192147.000589v39.6l6.6 2.8c8.2 3.6 15.6 10.6 19.2 18.3 2.3 5 2.7 7.1 2.7 14.8-.1 7.6-.5 9.9-2.7 14.5-3.8 8.1-8.9 13.4-16.6 17.2-5.7 2.8-7.8 3.3-15.2 3.5-5.3.2-10.2-.3-13-1.2-2.5-.8-6.7-3.2-9.4-5.2-14.1-10.8-18.4-29-10.7-44.8 3.9-7.8 9.8-13.3 18.6-17.1l6.5-2.8v-39.6l-23.091554-.000572c-17.746266-.012688-19.971446-.247428-22.008446-1.799428-3.1-2.6-3.1-7.8 0-10.4l.126374-.09433c2.051279-1.498145 4.60688-1.701612 22.999709-1.705609l21.973917-.000061v-166.1l-6.2.6c-40.1 3.9-77.2 24.6-101 56.2-3.8 5.2-6.8 9.6-6.6 9.8.2.3 4.5-1.1 9.4-3.1 7.5-3 9.3-3.4 11.7-2.5 3.8 1.5 5.3 5.1 3.8 8.9-1.1 2.7-3.5 3.9-22.6 11.7-11.8 4.8-22.2 8.5-23.2 8.3-1.5-.3-2.1-3-4-19.3-2.9-25-2.9-28.8-.1-31.5 4.1-3.8 9.2-2 10.7 3.8.6 2 1.3 6.3 1.6 9.5l.7 5.8 6-8.2c11.7-16 30.4-32.7 48-43 17.2-10.1 40.9-17.8 61.6-20.1l10.2-1.2v-11.1c0-9.8.2-11.4 2-13.3 2.6-2.8 7.3-2.9 10-.2zm1615 10v306h-32v-306zm381 0v28.137931h-182.63415v114.310345h158.04878v26.37931h-158.04878v109.034483h177.36586v28.137931h-210.73171v-306zm-722.59167 0v130.137931h158.25v28.137931h-158.25v119.586207h177.59167v28.137931h-211v-306zm-153.40833 0v28.137931h-170.38261v277.862069h-31.61739v-306zm-596.817172 0 16.521152 37.496228c9.13936 20.420481 17.575693 39.080576 18.981749 41.369078l2.460597 3.87285 84.539085-.352077 84.539089-.528116 18.10296-40.488885 18.10297-40.488885 16.87266-.528116c9.13936-.176038 16.69691 0 16.69691.352078 0 .528115-31.10898 69.35922-69.24823 152.801531l-69.248234 151.921337-15.818125.528116c-8.787846.176039-16.345395-.176038-16.696908-.880193-1.933327-3.168695-136.914652-299.089633-137.793437-301.906251-.86085-2.759136.639489-3.153298 14.579097-3.168237zm-528.282828 262.8c-22.7 0-30 30.2-9.9 41 3.8 2 5.6 2.3 11.2 2 5.5-.3 7.5-.9 11-3.4 8.5-5.9 11.8-17 7.9-26-4.1-9.3-10.6-13.6-20.2-13.6zm650.584566-155.416225-1.20521-.000211c-42.181664 0-72.763371.704155-72.411857 1.584348 6.151493 16.547631 72.763371 161.779501 73.642155 160.899308.703028-.704154 17.22418-36.968112 36.557443-80.449654 19.509023-43.481542 35.327143-79.745499 35.327143-80.449654 0-.871391-32.212502-1.570247-71.909674-1.584137zm-644.484566-248.483775v59.9l7.8.7c15.3 1.2 30.9 3.8 44.2 7.1 65.9 16.7 121.7 61.5 152.4 122.3 14.1 27.9 21.9 55 24.7 85.9l1.2 13.2h60l-.7-10.2c-3.6-53.8-20.7-103.9-50.7-148.3-11.4-17-21.6-29-38.5-45.5-25.8-25.1-48.4-41-78.7-55.5-36.1-17.1-71.3-26.2-112.4-29zm-12.5.6-9 .3c-26.7.9-59.8 7.7-87.4 17.8-13.9 5.1-41.8 19-55 27.3-57 36.1-100.2 90.6-122.2 154.1-8.2 23.4-14 53-15.5 77.8l-.7 11.2h59.9l1.2-13.7c6.3-71.3 44.7-135.6 105.2-176 32.5-21.6 69.7-34.5 110.8-38.3l13.2-1.3-.2-29.6z" transform="matrix(1 0 0 -1 .1 617)"/></svg>